<svg viewBox="0 0 760 280" fill="none" xmlns="http://www.w3.org/2000/svg">
  <defs>
    <marker id="arrow" markerWidth="10" markerHeight="8" refX="9" refY="4" orient="auto">
      <path d="M0,0 L10,4 L0,8" fill="#9CA3AF"/>
    </marker>
  </defs>

  <!-- ========== BEFORE BOX ========== -->
  <rect x="20" y="16" width="270" height="248" rx="16" fill="#FAFAFA" stroke="#D1D5DB" stroke-width="1.5" stroke-dasharray="6 3"/>

  <!-- Header -->
  <text x="155" y="48" font-family="Lato, sans-serif" font-size="11" font-weight="700" fill="#374151" text-anchor="middle" letter-spacing="1.5">BEFORE: ONE EXPERIENCE</text>
  <line x1="52" y1="60" x2="258" y2="60" stroke="#E5E7EB" stroke-width="1"/>

  <!-- Person 1: PM -->
  <circle cx="96" cy="106" r="18" fill="#F3F4F6"/>
  <circle cx="96" cy="99" r="8" fill="#9CA3AF"/>
  <path d="M83,115 C83,110 89,107 96,107 C103,107 109,110 109,115" fill="#9CA3AF"/>
  <text x="96" y="146" font-family="Lato, sans-serif" font-size="10" fill="#6B7280" text-anchor="middle">PM</text>

  <!-- Person 2: Data -->
  <circle cx="155" cy="106" r="18" fill="#F3F4F6"/>
  <circle cx="155" cy="99" r="8" fill="#9CA3AF"/>
  <path d="M142,115 C142,110 148,107 155,107 C162,107 168,110 168,115" fill="#9CA3AF"/>
  <text x="155" y="146" font-family="Lato, sans-serif" font-size="10" fill="#6B7280" text-anchor="middle">Data</text>

  <!-- Person 3: Lead -->
  <circle cx="214" cy="106" r="18" fill="#F3F4F6"/>
  <circle cx="214" cy="99" r="8" fill="#9CA3AF"/>
  <path d="M201,115 C201,110 207,107 214,107 C221,107 227,110 227,115" fill="#9CA3AF"/>
  <text x="214" y="146" font-family="Lato, sans-serif" font-size="10" fill="#6B7280" text-anchor="middle">Lead</text>

  <!-- Bottom text -->
  <text x="155" y="186" font-family="Lato, sans-serif" font-size="13" fill="#9CA3AF" text-anchor="middle">Same UI for everyone</text>

  <!-- ========== ARROW ========== -->
  <line x1="310" y1="140" x2="396" y2="140" stroke="#9CA3AF" stroke-width="1.5" marker-end="url(#arrow)"/>
  <text x="353" y="128" font-family="Lato, sans-serif" font-size="11" fill="#9CA3AF" text-anchor="middle">Research</text>

  <!-- ========== AFTER BOX ========== -->
  <rect x="416" y="16" width="324" height="248" rx="16" fill="#FAFAFA" stroke="#5B9B8E" stroke-width="1.5"/>

  <!-- Header -->
  <text x="578" y="48" font-family="Lato, sans-serif" font-size="11" font-weight="700" fill="#374151" text-anchor="middle" letter-spacing="1.5">AFTER: TWO EXPERIENCES</text>
  <line x1="452" y1="60" x2="704" y2="60" stroke="#E5E7EB" stroke-width="1"/>

  <!-- Creator View card -->
  <rect x="446" y="78" width="264" height="60" rx="12" fill="white" stroke="#E5E7EB" stroke-width="1"/>
  <circle cx="470" cy="108" r="10" fill="#E8F4F1"/>
  <text x="472" y="112" font-family="Lato, sans-serif" font-size="10" fill="#5B9B8E" text-anchor="middle" font-weight="700">C</text>
  <text x="498" y="103" font-family="Lato, sans-serif" font-size="14" font-weight="700" fill="#1F2937" text-anchor="start">Creator View</text>
  <text x="498" y="121" font-family="Lato, sans-serif" font-size="12" fill="#9CA3AF" text-anchor="start">Setup &amp; unify filters</text>

  <!-- Consumer View card -->
  <rect x="446" y="152" width="264" height="60" rx="12" fill="white" stroke="#E5E7EB" stroke-width="1"/>
  <circle cx="470" cy="182" r="10" fill="#E8F4F1"/>
  <text x="472" y="186" font-family="Lato, sans-serif" font-size="10" fill="#5B9B8E" text-anchor="middle" font-weight="700">C</text>
  <text x="498" y="177" font-family="Lato, sans-serif" font-size="14" font-weight="700" fill="#1F2937" text-anchor="start">Consumer View</text>
  <text x="498" y="195" font-family="Lato, sans-serif" font-size="12" fill="#9CA3AF" text-anchor="start">Intuitive self-serve</text>

  <!-- Bottom text -->
  <text x="578" y="240" font-family="Lato, sans-serif" font-size="13" fill="#5B9B8E" text-anchor="middle" font-style="italic">Right tool for right user</text>
</svg>
