<svg viewBox="0 0 960 260" fill="none" xmlns="http://www.w3.org/2000/svg">
  <!-- ========== LEFT: DATA CONSUMERS ========== -->
  <rect x="20" y="12" width="440" height="236" rx="16" fill="#FAFAFA" stroke="#E5E7EB" stroke-width="1"/>
  <!-- Header -->
  <text x="240" y="44" font-family="Lato, sans-serif" font-size="11" font-weight="700" fill="#374151" text-anchor="middle" letter-spacing="2">DATA CONSUMERS</text>
  <!-- Subtle divider -->
  <line x1="56" y1="56" x2="424" y2="56" stroke="#E5E7EB" stroke-width="1"/>

  <!-- Person 1: PM -->
  <circle cx="82" cy="100" r="20" fill="#F3F4F6"/>
  <circle cx="82" cy="93" r="8.5" fill="#9CA3AF"/>
  <path d="M67,111 C67,106 74,102 82,102 C90,102 97,106 97,111" fill="#9CA3AF"/>
  <text x="82" y="143" font-family="Lato, sans-serif" font-size="10" fill="#6B7280" text-anchor="middle">PM</text>

  <!-- Person 2: PM -->
  <circle cx="160" cy="100" r="20" fill="#F3F4F6"/>
  <circle cx="160" cy="93" r="8.5" fill="#9CA3AF"/>
  <path d="M145,111 C145,106 152,102 160,102 C168,102 175,106 175,111" fill="#9CA3AF"/>
  <text x="160" y="143" font-family="Lato, sans-serif" font-size="10" fill="#6B7280" text-anchor="middle">PM</text>

  <!-- Person 3: PM Lead -->
  <circle cx="240" cy="100" r="20" fill="#F3F4F6"/>
  <circle cx="240" cy="93" r="8.5" fill="#9CA3AF"/>
  <path d="M225,111 C225,106 232,102 240,102 C248,102 255,106 255,111" fill="#9CA3AF"/>
  <text x="240" y="143" font-family="Lato, sans-serif" font-size="10" fill="#6B7280" text-anchor="middle">PM Lead</text>

  <!-- Person 4: Analyst -->
  <circle cx="320" cy="100" r="20" fill="#F3F4F6"/>
  <circle cx="320" cy="93" r="8.5" fill="#9CA3AF"/>
  <path d="M305,111 C305,106 312,102 320,102 C328,102 335,106 335,111" fill="#9CA3AF"/>
  <text x="320" y="143" font-family="Lato, sans-serif" font-size="10" fill="#6B7280" text-anchor="middle">Analyst</text>

  <!-- Person 5: Director -->
  <circle cx="398" cy="100" r="20" fill="#F3F4F6"/>
  <circle cx="398" cy="93" r="8.5" fill="#9CA3AF"/>
  <path d="M383,111 C383,106 390,102 398,102 C406,102 413,106 413,111" fill="#9CA3AF"/>
  <text x="398" y="143" font-family="Lato, sans-serif" font-size="10" fill="#6B7280" text-anchor="middle">Director</text>

  <!-- Divider -->
  <line x1="56" y1="158" x2="424" y2="158" stroke="#E5E7EB" stroke-width="1"/>

  <!-- Key pain -->
  <text x="240" y="180" font-family="Lato, sans-serif" font-size="11" fill="#5B9B8E" text-anchor="middle" font-weight="700">Key pain:</text>
  <text x="240" y="200" font-family="Lato, sans-serif" font-size="12" fill="#6B7280" text-anchor="middle" font-style="italic">"Filters are too technical.</text>
  <text x="240" y="218" font-family="Lato, sans-serif" font-size="12" fill="#6B7280" text-anchor="middle" font-style="italic">I always have to ask a data scientist."</text>

  <!-- ========== RIGHT: DATA CREATORS ========== -->
  <rect x="500" y="12" width="440" height="236" rx="16" fill="#FAFAFA" stroke="#E5E7EB" stroke-width="1"/>
  <!-- Header -->
  <text x="720" y="44" font-family="Lato, sans-serif" font-size="11" font-weight="700" fill="#374151" text-anchor="middle" letter-spacing="2">DATA CREATORS</text>
  <!-- Subtle divider -->
  <line x1="536" y1="56" x2="904" y2="56" stroke="#E5E7EB" stroke-width="1"/>

  <!-- Person 1 -->
  <circle cx="562" cy="100" r="20" fill="#E8F4F1"/>
  <circle cx="562" cy="93" r="8.5" fill="#5B9B8E"/>
  <path d="M547,111 C547,106 554,102 562,102 C570,102 577,106 577,111" fill="#5B9B8E"/>
  <text x="562" y="143" font-family="Lato, sans-serif" font-size="10" fill="#6B7280" text-anchor="middle">Data Sci</text>

  <!-- Person 2 -->
  <circle cx="640" cy="100" r="20" fill="#E8F4F1"/>
  <circle cx="640" cy="93" r="8.5" fill="#5B9B8E"/>
  <path d="M625,111 C625,106 632,102 640,102 C648,102 655,106 655,111" fill="#5B9B8E"/>
  <text x="640" y="143" font-family="Lato, sans-serif" font-size="10" fill="#6B7280" text-anchor="middle">Data Sci</text>

  <!-- Person 3 -->
  <circle cx="720" cy="100" r="20" fill="#E8F4F1"/>
  <circle cx="720" cy="93" r="8.5" fill="#5B9B8E"/>
  <path d="M705,111 C705,106 712,102 720,102 C728,102 735,106 735,111" fill="#5B9B8E"/>
  <text x="720" y="143" font-family="Lato, sans-serif" font-size="10" fill="#6B7280" text-anchor="middle">Data Sci</text>

  <!-- Person 4 -->
  <circle cx="800" cy="100" r="20" fill="#E8F4F1"/>
  <circle cx="800" cy="93" r="8.5" fill="#5B9B8E"/>
  <path d="M785,111 C785,106 792,102 800,102 C808,102 815,106 815,111" fill="#5B9B8E"/>
  <text x="800" y="143" font-family="Lato, sans-serif" font-size="10" fill="#6B7280" text-anchor="middle">Data Sci</text>

  <!-- Person 5 -->
  <circle cx="878" cy="100" r="20" fill="#E8F4F1"/>
  <circle cx="878" cy="93" r="8.5" fill="#5B9B8E"/>
  <path d="M863,111 C863,106 870,102 878,102 C886,102 893,106 893,111" fill="#5B9B8E"/>
  <text x="878" y="143" font-family="Lato, sans-serif" font-size="10" fill="#6B7280" text-anchor="middle">Data Sci</text>

  <!-- Divider -->
  <line x1="536" y1="158" x2="904" y2="158" stroke="#E5E7EB" stroke-width="1"/>

  <!-- Key pain -->
  <text x="720" y="180" font-family="Lato, sans-serif" font-size="11" fill="#5B9B8E" text-anchor="middle" font-weight="700">Key pain:</text>
  <text x="720" y="200" font-family="Lato, sans-serif" font-size="12" fill="#6B7280" text-anchor="middle" font-style="italic">"I spend hours answering PMs' questions.</text>
  <text x="720" y="218" font-family="Lato, sans-serif" font-size="12" fill="#6B7280" text-anchor="middle" font-style="italic">I've become a human filter."</text>
</svg>
