<svg xmlns="http://www.w3.org/2000/svg" viewBox="0 0 120 120" fill="none">
  <!-- Background circle -->
  <circle cx="60" cy="60" r="60" fill="#F0F6F5"/>
  <!-- Hair - neat, pulled back -->
  <path d="M36 52c0-17 11-28 24-28s24 11 24 28v6H36v-6z" fill="#4A3728"/>
  <!-- Face -->
  <ellipse cx="60" cy="63" rx="20" ry="22" fill="#E8C9A0"/>
  <!-- Hair front - neat -->
  <path d="M38 50c2-14 11-24 22-24s20 10 22 24c0 1-1 1-2 0-3-3-8-5-13-5h-6c-7 0-12 2-16 6-1 1-3 0-3-1h-4z" fill="#4A3728"/>
  <!-- Hair bun -->
  <ellipse cx="60" cy="28" rx="10" ry="8" fill="#4A3728"/>
  <!-- Reading glasses -->
  <rect x="44" y="56" width="13" height="10" rx="5" fill="none" stroke="#8B7355" stroke-width="1.5"/>
  <rect x="63" y="56" width="13" height="10" rx="5" fill="none" stroke="#8B7355" stroke-width="1.5"/>
  <line x1="57" y1="61" x2="63" y2="61" stroke="#8B7355" stroke-width="1.5"/>
  <line x1="44" y1="61" x2="38" y2="58" stroke="#8B7355" stroke-width="1.5"/>
  <line x1="76" y1="61" x2="82" y2="58" stroke="#8B7355" stroke-width="1.5"/>
  <!-- Eyes behind glasses - focused, warm -->
  <circle cx="50" cy="61" r="2" fill="#3D2E1F"/>
  <circle cx="70" cy="61" r="2" fill="#3D2E1F"/>
  <circle cx="51" cy="60.5" r="0.8" fill="white"/>
  <circle cx="71" cy="60.5" r="0.8" fill="white"/>
  <!-- Eyebrows - calm -->
  <path d="M45 54c2-1 5-2 8-1" stroke="#3D2E1F" stroke-width="1.5" stroke-linecap="round"/>
  <path d="M67 53c3-1 6 0 8 1" stroke="#3D2E1F" stroke-width="1.5" stroke-linecap="round"/>
  <!-- Mouth - gentle, knowing smile -->
  <path d="M53 72c3 2 11 2 14 0" stroke="#3D2E1F" stroke-width="1.5" stroke-linecap="round" fill="none"/>
  <!-- Blush -->
  <ellipse cx="44" cy="68" rx="4" ry="2" fill="#DEB8A0" opacity="0.4"/>
  <ellipse cx="76" cy="68" rx="4" ry="2" fill="#DEB8A0" opacity="0.4"/>
  <!-- Book in hand area -->
  <rect x="14" y="90" width="20" height="16" rx="2" fill="#5B9B8E" opacity="0.8"/>
  <line x1="24" y1="93" x2="24" y2="103" stroke="white" stroke-width="0.5"/>
  <line x1="18" y1="95" x2="22" y2="95" stroke="white" stroke-width="0.5" opacity="0.6"/>
  <line x1="18" y1="97" x2="22" y2="97" stroke="white" stroke-width="0.5" opacity="0.6"/>
  <line x1="18" y1="99" x2="21" y2="99" stroke="white" stroke-width="0.5" opacity="0.6"/>
  <line x1="26" y1="95" x2="30" y2="95" stroke="white" stroke-width="0.5" opacity="0.6"/>
  <line x1="26" y1="97" x2="30" y2="97" stroke="white" stroke-width="0.5" opacity="0.6"/>
  <!-- Shoulders/body - neat traditional style -->
  <path d="M28 105c0-14 14-21 32-21s32 7 32 21v15H28v-15z" fill="#5B9B8E"/>
  <!-- Collar detail -->
  <path d="M52 86l8 10 8-10" stroke="#3E6B61" stroke-width="1.5" fill="none"/>
</svg>